<?xml version="1.0" encoding="UTF-8" standalone="no"?>
<!-- Created with Inkscape (http://www.inkscape.org/) -->

<svg
   width="185.88457mm"
   height="50.410549mm"
   viewBox="0 0 185.88457 50.410549"
   version="1.1"
   id="svg1"
   inkscape:version="1.4 (e7c3feb1, 2024-10-09)"
   sodipodi:docname="context-3.svg"
   inkscape:export-filename="context.png"
   inkscape:export-xdpi="96"
   inkscape:export-ydpi="96"
   xmlns:inkscape="http://www.inkscape.org/namespaces/inkscape"
   xmlns:sodipodi="http://sodipodi.sourceforge.net/DTD/sodipodi-0.dtd"
   xmlns="http://www.w3.org/2000/svg"
   xmlns:svg="http://www.w3.org/2000/svg">
  <sodipodi:namedview
     id="namedview1"
     pagecolor="#ffffff"
     bordercolor="#000000"
     borderopacity="0.25"
     inkscape:showpageshadow="2"
     inkscape:pageopacity="0.0"
     inkscape:pagecheckerboard="0"
     inkscape:deskcolor="#d1d1d1"
     inkscape:document-units="mm"
     inkscape:zoom="0.87118442"
     inkscape:cx="394.86473"
     inkscape:cy="161.27469"
     inkscape:window-width="1512"
     inkscape:window-height="862"
     inkscape:window-x="0"
     inkscape:window-y="38"
     inkscape:window-maximized="0"
     inkscape:current-layer="layer1" />
  <defs
     id="defs1">
    <inkscape:path-effect
       effect="fillet_chamfer"
       id="path-effect1-7"
       is_visible="true"
       lpeversion="1"
       nodesatellites_param="F,0,0,1,0,6.6145833,0,1 @ F,0,0,1,0,6.6145833,0,1 @ F,0,0,1,0,6.6145833,0,1 @ F,0,0,1,0,6.6145833,0,1"
       radius="25"
       unit="px"
       method="auto"
       mode="F"
       chamfer_steps="1"
       flexible="false"
       use_knot_distance="true"
       apply_no_radius="true"
       apply_with_radius="true"
       only_selected="false"
       hide_knots="false" />
    <inkscape:path-effect
       effect="fillet_chamfer"
       id="path-effect1-7-7"
       is_visible="true"
       lpeversion="1"
       nodesatellites_param="F,0,0,1,0,5.8208333,0,1 @ F,0,0,1,0,5.8208333,0,1 @ F,0,0,1,0,5.8208333,0,1 @ F,0,0,1,0,5.8208333,0,1"
       radius="22"
       unit="px"
       method="auto"
       mode="F"
       chamfer_steps="1"
       flexible="false"
       use_knot_distance="true"
       apply_no_radius="true"
       apply_with_radius="true"
       only_selected="false"
       hide_knots="false" />
    <inkscape:path-effect
       effect="fillet_chamfer"
       id="path-effect1-7-8"
       is_visible="true"
       lpeversion="1"
       nodesatellites_param="F,0,0,1,0,6.6145833,0,1 @ F,0,0,1,0,6.6145833,0,1 @ F,0,0,1,0,6.6145833,0,1 @ F,0,0,1,0,6.6145833,0,1"
       radius="25"
       unit="px"
       method="auto"
       mode="F"
       chamfer_steps="1"
       flexible="false"
       use_knot_distance="true"
       apply_no_radius="true"
       apply_with_radius="true"
       only_selected="false"
       hide_knots="false" />
    <inkscape:path-effect
       effect="fillet_chamfer"
       id="path-effect1-7-7-3"
       is_visible="true"
       lpeversion="1"
       nodesatellites_param="F,0,0,1,0,5.8208333,0,1 @ F,0,0,1,0,5.8208333,0,1 @ F,0,0,1,0,5.8208333,0,1 @ F,0,0,1,0,5.8208333,0,1"
       radius="22"
       unit="px"
       method="auto"
       mode="F"
       chamfer_steps="1"
       flexible="false"
       use_knot_distance="true"
       apply_no_radius="true"
       apply_with_radius="true"
       only_selected="false"
       hide_knots="false" />
    <inkscape:path-effect
       effect="fillet_chamfer"
       id="path-effect1-7-73"
       is_visible="true"
       lpeversion="1"
       nodesatellites_param="F,0,0,1,0,6.6145833,0,1 @ F,0,0,1,0,6.6145833,0,1 @ F,0,0,1,0,6.6145833,0,1 @ F,0,0,1,0,6.6145833,0,1"
       radius="25"
       unit="px"
       method="auto"
       mode="F"
       chamfer_steps="1"
       flexible="false"
       use_knot_distance="true"
       apply_no_radius="true"
       apply_with_radius="true"
       only_selected="false"
       hide_knots="false" />
    <inkscape:path-effect
       effect="fillet_chamfer"
       id="path-effect1-7-7-7"
       is_visible="true"
       lpeversion="1"
       nodesatellites_param="F,0,0,1,0,5.8208333,0,1 @ F,0,0,1,0,5.8208333,0,1 @ F,0,0,1,0,5.8208333,0,1 @ F,0,0,1,0,5.8208333,0,1"
       radius="22"
       unit="px"
       method="auto"
       mode="F"
       chamfer_steps="1"
       flexible="false"
       use_knot_distance="true"
       apply_no_radius="true"
       apply_with_radius="true"
       only_selected="false"
       hide_knots="false" />
  </defs>
  <g
     inkscape:label="Layer 1"
     inkscape:groupmode="layer"
     id="layer1"
     transform="translate(-12.090675,-123.29472)">
    <g
       id="g3"
       transform="translate(0.01326846,86.634913)"
       style="opacity:1">
      <path
         style="fill:#56876d;fill-opacity:1;fill-rule:evenodd;stroke:#000000;stroke-width:0.5;stroke-dasharray:none;stroke-opacity:1"
         id="rect1-3"
         width="35"
         height="35"
         x="9.1387482"
         y="9.6159201"
         inkscape:path-effect="#path-effect1-7"
         sodipodi:type="rect"
         d="m 15.753331,9.6159201 h 21.770834 a 6.6145833,6.6145833 45 0 1 6.614583,6.6145829 V 38.001337 A 6.6145833,6.6145833 135 0 1 37.524165,44.61592 H 15.753331 A 6.6145833,6.6145833 45 0 1 9.1387482,38.001337 V 16.230503 A 6.6145833,6.6145833 135 0 1 15.753331,9.6159201 Z"
         transform="matrix(1.4200155,0,0,1.4200155,67.192254,23.36006)" />
      <path
         style="fill:#c1d7ce;fill-opacity:1;fill-rule:evenodd;stroke:#000000;stroke-width:0.5;stroke-dasharray:none;stroke-opacity:1"
         id="rect1-3-2"
         width="35"
         height="35"
         x="9.1387482"
         y="9.6159201"
         inkscape:path-effect="#path-effect1-7-7"
         sodipodi:type="rect"
         d="m 14.959581,9.6159201 h 23.358334 a 5.8208333,5.8208333 45 0 1 5.820833,5.8208329 V 38.795087 A 5.8208333,5.8208333 135 0 1 38.317915,44.61592 H 14.959581 A 5.8208333,5.8208333 45 0 1 9.1387482,38.795087 V 15.436753 A 5.8208333,5.8208333 135 0 1 14.959581,9.6159201 Z"
         transform="matrix(1.2780139,0,0,1.2780139,70.974998,27.210563)" />
    </g>
    <g
       id="g2"
       transform="translate(0,87.295758)">
      <path
         style="fill:#175676;fill-opacity:1;fill-rule:evenodd;stroke:#000000;stroke-width:0.5;stroke-dasharray:none;stroke-opacity:1"
         id="rect1-3-0"
         width="35"
         height="35"
         x="9.1387482"
         y="9.6159201"
         inkscape:path-effect="#path-effect1-7-8"
         sodipodi:type="rect"
         d="m 15.753331,9.6159201 h 21.770834 a 6.6145833,6.6145833 45 0 1 6.614583,6.6145829 V 38.001337 A 6.6145833,6.6145833 135 0 1 37.524165,44.61592 H 15.753331 A 6.6145833,6.6145833 45 0 1 9.1387482,38.001337 V 16.230503 A 6.6145833,6.6145833 135 0 1 15.753331,9.6159201 Z"
         transform="matrix(1.4200155,0,0,1.4200155,-0.53148508,22.699215)" />
      <path
         style="fill:#b8e0f4;fill-opacity:1;fill-rule:evenodd;stroke:#000000;stroke-width:0.5;stroke-dasharray:none;stroke-opacity:1"
         id="rect1-3-2-5"
         width="35"
         height="35"
         x="9.1387482"
         y="9.6159201"
         inkscape:path-effect="#path-effect1-7-7-3"
         sodipodi:type="rect"
         d="m 14.959581,9.6159201 h 23.358334 a 5.8208333,5.8208333 45 0 1 5.820833,5.8208329 V 38.795087 A 5.8208333,5.8208333 135 0 1 38.317915,44.61592 H 14.959581 A 5.8208333,5.8208333 45 0 1 9.1387482,38.795087 V 15.436753 A 5.8208333,5.8208333 135 0 1 14.959581,9.6159201 Z"
         transform="matrix(1.2780139,0,0,1.2780139,3.2512579,26.549718)" />
    </g>
    <g
       id="g4"
       transform="translate(0,84.812756)"
       style="opacity:1">
      <path
         style="fill:#b4656f;fill-opacity:1;fill-rule:evenodd;stroke:#000000;stroke-width:0.5;stroke-dasharray:none;stroke-opacity:1"
         id="rect1-3-02"
         width="35"
         height="35"
         x="9.1387482"
         y="9.6159201"
         inkscape:path-effect="#path-effect1-7-73"
         sodipodi:type="rect"
         d="m 15.753331,9.6159201 h 21.770834 a 6.6145833,6.6145833 45 0 1 6.614583,6.6145829 V 38.001337 A 6.6145833,6.6145833 135 0 1 37.524165,44.61592 H 15.753331 A 6.6145833,6.6145833 45 0 1 9.1387482,38.001337 V 16.230503 A 6.6145833,6.6145833 135 0 1 15.753331,9.6159201 Z"
         transform="matrix(1.4200155,0,0,1.4200155,134.94253,25.182217)" />
      <path
         style="fill:#e0b8b9;fill-opacity:1;fill-rule:evenodd;stroke:#000000;stroke-width:0.5;stroke-dasharray:none;stroke-opacity:1"
         id="rect1-3-2-3"
         width="35"
         height="35"
         x="9.1387482"
         y="9.6159201"
         inkscape:path-effect="#path-effect1-7-7-7"
         sodipodi:type="rect"
         d="m 14.959581,9.6159201 h 23.358334 a 5.8208333,5.8208333 45 0 1 5.820833,5.8208329 V 38.795087 A 5.8208333,5.8208333 135 0 1 38.317915,44.61592 H 14.959581 A 5.8208333,5.8208333 45 0 1 9.1387482,38.795087 V 15.436753 A 5.8208333,5.8208333 135 0 1 14.959581,9.6159201 Z"
         transform="matrix(1.2780139,0,0,1.2780139,138.72527,29.03272)" />
    </g>
    <text
       xml:space="preserve"
       style="font-style:italic;font-size:8.46667px;font-family:'Fira Sans';-inkscape-font-specification:'Fira Sans, Italic';text-align:center;writing-mode:lr-tb;direction:ltr;text-anchor:middle;fill:#b8e0f4;fill-opacity:1;stroke-width:1.32292"
       x="37.448353"
       y="150.99344"
       id="text4"><tspan
         sodipodi:role="line"
         id="tspan4"
         style="font-weight:bold;fill:#1a1a1a;stroke-width:1.32292"
         x="37.448353"
         y="150.99344">Society 5.0</tspan></text>
    <text
       xml:space="preserve"
       style="font-style:italic;font-size:8.46667px;font-family:'Fira Sans';-inkscape-font-specification:'Fira Sans, Italic';text-align:center;writing-mode:lr-tb;direction:ltr;text-anchor:middle;fill:#b8e0f4;fill-opacity:1;stroke-width:1.32292;opacity:1"
       x="104.89326"
       y="151.4337"
       id="text4-6"><tspan
         sodipodi:role="line"
         id="tspan4-9"
         style="font-weight:bold;fill:#1a1a1a;stroke-width:1.32292"
         x="104.89326"
         y="151.4337">Green AI</tspan></text>
    <g
       id="g1"
       transform="translate(134.64026,0.67567157)"
       style="opacity:1">
      <text
         xml:space="preserve"
         style="font-style:italic;font-size:8.46667px;font-family:'Fira Sans';-inkscape-font-specification:'Fira Sans, Italic';text-align:center;writing-mode:lr-tb;direction:ltr;text-anchor:middle;fill:#b8e0f4;fill-opacity:1;stroke-width:1.32292"
         x="37.939213"
         y="145.39439"
         id="text4-5"><tspan
           sodipodi:role="line"
           id="tspan4-4"
           style="font-weight:bold;fill:#1a1a1a;stroke-width:1.32292"
           x="37.939213"
           y="145.39439">Large </tspan><tspan
           sodipodi:role="line"
           style="font-weight:bold;fill:#1a1a1a;stroke-width:1.32292"
           x="37.939213"
           y="155.97774"
           id="tspan5">Scale IoT</tspan></text>
    </g>
  </g>
</svg>
